<svg width="118" height="118" viewBox="0 0 118 118" fill="none" xmlns="http://www.w3.org/2000/svg">
<path d="M113.736 53.3595C112.769 43.6538 109.207 34.3872 103.425 26.5323C103.95 25.6437 104.229 24.6318 104.236 23.6C104.236 22.0352 103.614 20.5345 102.507 19.4281C101.401 18.3216 99.9001 17.7 98.3357 17.7C97.5066 17.7019 96.6872 17.8803 95.9324 18.2231C92.4231 15.0266 88.5113 12.3026 84.2958 10.1204C83.9366 8.90517 83.1955 7.83815 82.1817 7.0778C81.1679 6.31746 79.9364 5.90442 78.6689 5.9C77.7062 5.90768 76.7599 6.15431 75.9158 6.61783C70.4537 4.84216 64.7462 3.93627 59.0027 3.93333C56.8332 3.93878 54.6657 4.07604 52.5127 4.34436C49.5997 1.58683 45.7507 0.0346508 41.7397 0C33.7846 0 26.9269 6.21859 25.0232 14.9624C17.55 17.2555 12.2401 25.0533 12.2401 34.039C12.2436 34.8581 12.2948 35.6764 12.3935 36.4895C5.11694 38.94 0.0036732 46.5863 0.0036732 55.4361C-0.0615804 58.8742 0.743514 62.2724 2.34409 65.3154C3.94467 68.3584 6.28877 70.9471 9.15838 72.8415C7.16371 76.2038 6.11454 80.0431 6.12188 83.953C6.12188 94.8642 13.8665 103.742 23.385 103.742C23.9808 103.741 24.5759 103.702 25.1668 103.625C27.2436 112.067 33.9518 118 41.7397 118C45.7507 117.965 49.5997 116.413 52.5127 113.655C54.6657 113.924 56.8332 114.061 59.0027 114.066C64.7462 114.063 70.4537 113.158 75.9158 111.382C76.7599 111.845 77.7062 112.092 78.6689 112.1C79.9364 112.096 81.1679 111.682 82.1817 110.922C83.1955 110.162 83.9366 109.094 84.2958 107.879C88.5113 105.697 92.4231 102.973 95.9324 99.7769C96.6872 100.119 97.5066 100.298 98.3357 100.3C99.9001 100.3 101.401 99.6782 102.507 98.5719C103.614 97.4656 104.236 95.9647 104.236 94.3997C104.229 93.3682 103.95 92.3561 103.425 91.4675C109.207 83.6124 112.769 74.3463 113.736 64.6405C114.964 64.2921 116.044 63.5531 116.814 62.5352C117.584 61.5173 118 60.2759 118 59C118 57.7236 117.584 56.4827 116.814 55.4648C116.044 54.4464 114.964 53.7074 113.736 53.3595ZM98.3357 88.4998C98.0558 88.508 97.7773 88.5362 97.5017 88.5843L85.5049 69.7436C85.328 69.4657 85.0841 69.2368 84.7954 69.0775C84.5067 68.9186 84.183 68.8345 83.853 68.8331H59.0027V60.9668H106.564C106.836 61.7369 107.264 62.4424 107.822 63.0391C108.38 63.6357 109.055 64.1109 109.805 64.434C108.89 73.271 105.655 81.7092 100.428 88.8933C99.7606 88.6348 99.0511 88.5017 98.3357 88.4998ZM78.6689 100.3C77.8797 100.299 77.0987 100.457 76.3721 100.766L59.0027 79.9212V72.7667H82.7736L94.0089 90.4214C93.1856 91.2921 92.6544 92.3984 92.4901 93.5854C92.3254 94.7724 92.5353 95.9812 93.0903 97.0429C90.2939 99.5636 87.2239 101.763 83.9376 103.6C83.4555 102.613 82.7061 101.78 81.7749 101.197C80.8438 100.614 79.7678 100.303 78.6689 100.3ZM76.3721 17.2339C77.7562 17.8214 79.3129 17.8549 80.7208 17.3275C82.1287 16.8001 83.2805 15.752 83.9376 14.3999C87.2239 16.2372 90.2939 18.4365 93.0903 20.9568C92.5353 22.0188 92.3254 23.2276 92.4901 24.4147C92.6544 25.6017 93.1856 26.7077 94.0089 27.5785L82.7736 45.2333H59.0027V38.0786L76.3721 17.2339ZM100.428 29.1066C105.656 36.2931 108.891 44.7341 109.805 53.5738C109.055 53.8959 108.381 54.3696 107.823 54.9648C107.265 55.5605 106.837 56.2645 106.564 57.0332H59.0027V49.1664H83.853C84.184 49.1669 84.5096 49.0833 84.7998 48.924C85.0899 48.7651 85.3353 48.5352 85.5132 48.256L97.5095 29.4154C98.4951 29.5975 99.5123 29.4874 100.436 29.0988L100.428 29.1066ZM100.302 23.6C100.302 23.9889 100.187 24.3692 99.9706 24.6926C99.7548 25.016 99.4476 25.2681 99.088 25.417C98.7289 25.5658 98.3333 25.6048 97.9518 25.5289C97.5702 25.453 97.2198 25.2657 96.9448 24.9906C96.6697 24.7156 96.4826 24.3652 96.4068 23.9836C96.331 23.6021 96.3698 23.2067 96.5186 22.8474C96.6673 22.488 96.9195 22.1809 97.2427 21.9647C97.5664 21.7486 97.9464 21.6333 98.3357 21.6333C98.8572 21.6333 99.3572 21.8405 99.7261 22.2093C100.095 22.5782 100.302 23.0784 100.302 23.6ZM78.6689 9.83333C79.0582 9.83333 79.4383 9.94868 79.7619 10.1648C80.0851 10.3809 80.3374 10.688 80.4861 11.0474C80.6348 11.4067 80.6737 11.8022 80.5979 12.1837C80.522 12.5652 80.3349 12.9156 80.0599 13.1906C79.7848 13.4657 79.4344 13.653 79.0529 13.7289C78.6714 13.8048 78.2758 13.7658 77.9166 13.617C77.557 13.4681 77.2498 13.216 77.034 12.8926C76.8178 12.5692 76.7026 12.189 76.7026 11.8C76.7026 11.2784 76.9096 10.7782 77.2785 10.4093C77.6474 10.0405 78.1475 9.83333 78.6689 9.83333ZM73.1155 9.88838C72.8351 10.6463 72.7233 11.456 72.7869 12.2615C72.8511 13.067 73.0892 13.849 73.4853 14.5533L59.0027 31.9347V19.7906C59.0226 15.607 57.8266 11.5077 55.5613 7.99056C56.6879 7.90797 57.8368 7.86667 59.0027 7.86667C63.7785 7.87566 68.5291 8.55622 73.1155 9.88838ZM41.7397 114.066C35.3068 114.066 29.8041 108.583 28.6576 101.027C28.6445 100.987 28.6295 100.947 28.6124 100.907C30.1797 99.686 32.1043 99.0116 34.0914 98.9883C35.5868 99.032 37.0525 99.4163 38.3769 100.113C39.7012 100.808 40.8493 101.797 41.7337 103.004L44.8057 100.546C43.5568 98.8741 41.9421 97.5098 40.085 96.5584C38.228 95.6066 36.1778 95.0921 34.0914 95.0547C32.183 95.0838 30.3026 95.5187 28.5751 96.3301C26.8475 97.1415 25.3123 98.311 24.0714 99.7608C23.8432 99.7769 23.6092 99.808 23.385 99.808C16.0357 99.808 10.0551 92.6948 10.0551 83.953C10.0384 80.1146 11.282 76.3767 13.5951 73.3133C13.7188 73.1335 13.8112 72.9339 13.8684 72.7235C17.0151 68.2 20.8894 65.7279 24.9249 65.7279C29.4069 65.7279 33.6961 68.7646 37.004 74.2787L40.3768 72.2531C36.3314 65.5097 30.8425 61.7947 24.9249 61.7947C19.8667 61.7947 15.1311 64.5283 11.3335 69.5255C9.00189 68.0022 7.09844 65.9081 5.80389 63.4423C4.50935 60.9765 3.86669 58.2207 3.93695 55.4361C3.81221 52.3844 4.56941 49.3608 6.11794 46.7281C7.66652 44.0951 9.94083 41.9641 12.6688 40.5899C14.1552 42.4257 16.0164 43.923 18.128 44.9815C20.2396 46.04 22.5529 46.6355 24.9131 46.728C25.2101 46.728 25.5031 46.7181 25.8099 46.6984C31.3637 46.3326 36.534 42.6215 40.363 36.2515L36.9961 34.22C33.8495 39.4552 29.7825 42.4917 25.5522 42.771C23.8181 42.8032 22.0974 42.4612 20.5073 41.7681C18.9173 41.0751 17.4954 40.0474 16.3386 38.7551C16.5329 38.3872 16.602 37.966 16.5352 37.5554C16.3071 36.3997 16.1892 35.2249 16.1832 34.0469C16.0574 30.967 16.8308 27.9171 18.4089 25.2693C19.987 22.6215 22.3016 20.4903 25.0704 19.1357C27.6218 21.5268 30.9745 22.8785 34.4709 22.9254C34.644 22.9254 34.819 22.9254 34.994 22.9136C36.9022 22.8201 38.7675 22.3146 40.4618 21.432C42.1562 20.5494 43.6394 19.3104 44.8095 17.8003L41.7397 15.3223C40.9197 16.3953 39.8774 17.2783 38.6842 17.9107C37.491 18.5431 36.1752 18.91 34.8269 18.9862C32.5903 19.0628 30.3974 18.3545 28.6281 16.9841C28.6281 16.9408 28.6595 16.9035 28.6674 16.8582C29.8513 9.36918 35.3481 3.93333 41.7397 3.93333C49.0889 3.93333 55.0695 11.0468 55.0695 19.7906V98.2114C55.0695 106.953 49.0889 114.066 41.7397 114.066ZM55.5613 110.017C57.8271 106.5 59.0226 102.401 59.0027 98.2172V86.065L73.4853 103.447C73.0887 104.151 72.8506 104.933 72.7865 105.739C72.7228 106.545 72.8351 107.355 73.1155 108.113C68.5291 109.445 63.7785 110.125 59.0027 110.133C57.8368 110.133 56.6879 110.092 55.5613 110.017ZM78.6689 108.166C78.2801 108.166 77.9001 108.051 77.5764 107.835C77.2532 107.619 77.001 107.312 76.8523 106.953C76.7036 106.593 76.6642 106.198 76.7405 105.816C76.8163 105.435 77.0034 105.084 77.2785 104.809C77.5536 104.534 77.904 104.347 78.2855 104.271C78.667 104.195 79.0626 104.234 79.4217 104.383C79.7809 104.532 80.088 104.784 80.3043 105.107C80.5206 105.43 80.6358 105.811 80.6358 106.2C80.6358 106.721 80.4287 107.222 80.0599 107.591C79.691 107.959 79.1909 108.166 78.6689 108.166ZM98.3357 96.3665C97.9464 96.3665 97.5664 96.2514 97.2427 96.0352C96.9195 95.8189 96.6673 95.5119 96.5186 95.1523C96.3698 94.7933 96.331 94.3978 96.4068 94.0163C96.4826 93.6349 96.6697 93.2841 96.9448 93.0091C97.2198 92.7341 97.5702 92.5471 97.9518 92.4708C98.3333 92.395 98.7289 92.4339 99.088 92.583C99.4476 92.7317 99.7548 92.9839 99.9706 93.3075C100.187 93.6306 100.302 94.011 100.302 94.3997C100.302 94.9215 100.095 95.4215 99.7261 95.7908C99.3572 96.1595 98.8572 96.3665 98.3357 96.3665ZM112.102 60.9668C111.713 60.9668 111.333 60.8512 111.009 60.635C110.686 60.4192 110.434 60.1117 110.285 59.7526C110.136 59.3931 110.097 58.9976 110.173 58.6162C110.249 58.2347 110.436 57.8844 110.712 57.6094C110.987 57.3344 111.337 57.1469 111.719 57.0711C112.1 56.9953 112.495 57.0342 112.855 57.1828C113.214 57.332 113.521 57.5837 113.737 57.9073C113.953 58.2309 114.069 58.6108 114.069 59C114.069 59.5213 113.861 60.0218 113.492 60.3906C113.124 60.7593 112.623 60.9668 112.102 60.9668Z" fill="#359EFF"/>
</svg>
